<?xml version="1.0" standalone="no"?>
<!DOCTYPE svg PUBLIC "-//W3C//DTD SVG 20010904//EN"
 "http://www.w3.org/TR/2001/REC-SVG-20010904/DTD/svg10.dtd">
<svg version="1.0" xmlns="http://www.w3.org/2000/svg"
 width="3000.000000pt" height="3000.000000pt" viewBox="0 0 3000.000000 3000.000000"
 preserveAspectRatio="xMidYMid meet">
<metadata>
Created by potrace 1.14, written by Peter Selinger 2001-2017
</metadata>
<g transform="translate(0.000000,3000.000000) scale(0.100000,-0.100000)"
fill="#000000" stroke="none">
<path d="M14545 28659 c-204 -9 -470 -27 -790 -54 -667 -57 -1432 -186 -2055
-345 -63 -16 -153 -39 -200 -51 -202 -51 -698 -199 -870 -261 -47 -16 -118
-40 -158 -54 -39 -13 -127 -44 -195 -69 -67 -25 -153 -57 -192 -72 -38 -14
-98 -38 -133 -54 -34 -16 -66 -29 -72 -29 -5 0 -29 -8 -52 -19 -54 -24 -142
-61 -238 -102 -41 -17 -104 -45 -140 -61 -36 -17 -83 -39 -105 -48 -145 -65
-558 -268 -645 -317 -19 -11 -73 -39 -120 -63 -47 -24 -152 -83 -235 -130 -82
-48 -177 -101 -210 -120 -33 -18 -62 -36 -65 -39 -3 -4 -54 -36 -115 -71 -60
-36 -148 -90 -195 -120 -47 -31 -99 -65 -117 -76 -74 -44 -487 -328 -518 -355
-11 -10 -94 -73 -185 -140 -282 -209 -540 -420 -810 -663 -161 -146 -557 -539
-665 -662 -165 -187 -349 -390 -370 -409 -19 -18 -75 -83 -295 -349 -104 -126
-347 -445 -435 -570 -22 -32 -54 -76 -71 -99 -17 -23 -77 -112 -134 -197 -56
-85 -120 -181 -141 -212 -22 -31 -39 -59 -39 -62 0 -3 -19 -36 -43 -73 -61
-96 -284 -478 -353 -607 -92 -169 -345 -672 -387 -766 -21 -47 -46 -103 -56
-125 -40 -84 -109 -243 -136 -310 -15 -38 -38 -95 -52 -125 -14 -30 -35 -82
-48 -115 -13 -33 -48 -125 -79 -205 -130 -340 -320 -910 -400 -1200 -8 -30
-33 -120 -55 -200 -60 -216 -183 -725 -210 -870 -6 -30 -30 -156 -55 -280 -68
-347 -101 -559 -89 -571 8 -8 105 81 340 313 353 349 570 558 732 708 56 52
126 118 155 145 28 28 92 86 141 130 49 44 141 127 204 186 389 354 1256 1102
1355 1168 11 8 39 31 61 51 22 20 52 45 66 56 14 10 93 73 175 139 82 66 268
209 414 319 146 109 281 212 300 227 19 16 40 29 46 29 6 0 19 9 29 20 10 11
59 49 107 83 49 34 123 86 165 115 234 164 609 414 747 497 18 11 44 27 57 36
51 34 256 157 286 173 59 30 119 74 131 98 6 13 34 84 61 158 56 152 144 363
217 520 66 143 298 607 325 650 13 19 38 64 57 100 19 36 47 83 62 105 15 22
46 73 70 113 88 153 354 544 483 711 45 58 99 128 119 155 21 27 69 86 107
130 38 45 123 144 189 221 107 125 511 535 667 676 194 177 517 436 695 558
19 13 37 27 40 30 13 19 404 271 418 271 5 0 26 13 48 30 21 16 43 30 48 30 7
0 118 62 255 142 145 85 481 243 571 270 19 5 49 16 65 23 38 18 366 125 465
153 86 24 363 94 460 116 146 33 541 107 620 115 47 6 166 21 265 35 381 53
417 56 1025 87 561 28 1361 -27 1980 -137 562 -100 1142 -268 1603 -465 198
-85 496 -240 541 -281 11 -10 24 -18 29 -18 15 0 322 -193 412 -259 28 -21 91
-66 140 -101 480 -340 1024 -845 1424 -1323 68 -81 135 -160 149 -175 24 -25
93 -115 287 -370 34 -44 60 -68 80 -74 48 -13 241 -57 350 -78 55 -11 186 -41
290 -66 725 -173 647 -153 810 -198 72 -20 159 -43 195 -51 36 -8 137 -35 225
-60 88 -25 164 -45 170 -45 5 0 86 -22 180 -50 322 -94 480 -139 510 -146 17
-3 107 -30 200 -59 94 -29 247 -76 340 -104 94 -28 240 -74 325 -101 85 -27
229 -72 320 -101 91 -28 227 -74 302 -100 145 -52 178 -58 178 -35 0 19 -177
364 -216 422 -11 16 -26 40 -33 54 -32 63 -57 104 -141 230 -9 14 -24 39 -33
57 -9 17 -22 37 -29 45 -7 7 -53 74 -102 148 -49 74 -103 151 -120 171 -17 20
-54 70 -83 110 -29 41 -65 88 -80 106 -15 18 -45 54 -65 80 -93 118 -241 299
-257 313 -9 8 -48 51 -86 95 -412 476 -1108 1120 -1663 1538 -20 15 -53 40
-72 57 -78 65 -313 233 -498 356 -134 89 -354 220 -587 351 -77 43 -152 85
-166 93 -89 50 -681 347 -769 385 -36 16 -107 48 -158 72 -51 24 -109 49 -130
57 -36 13 -194 80 -282 119 -270 119 -1141 419 -1440 496 -41 10 -140 37 -220
59 -248 68 -734 178 -1000 227 -233 42 -648 106 -752 115 -65 6 -195 19 -290
30 -388 44 -530 50 -1223 48 -363 0 -750 -5 -860 -9z"/>
<path d="M17435 23270 c-520 -32 -659 -46 -685 -69 -9 -9 -60 -70 -112 -136
-177 -224 -553 -609 -795 -812 -399 -336 -747 -564 -1214 -795 -681 -338
-1357 -534 -2169 -629 -232 -27 -786 -38 -1022 -20 -274 21 -647 77 -934 140
-315 69 -873 259 -1108 378 -27 13 -56 22 -65 20 -43 -13 -258 -100 -356 -145
-60 -27 -159 -72 -220 -99 -129 -59 -531 -271 -578 -306 -17 -14 -86 -56 -152
-94 -1229 -716 -2795 -1958 -4360 -3458 -397 -381 -1076 -1050 -1261 -1242
l-165 -172 119 -203 c389 -661 467 -793 525 -883 35 -55 106 -172 157 -260 51
-88 202 -344 335 -570 133 -225 283 -480 333 -566 l92 -156 288 191 c271 180
369 242 665 420 303 182 791 451 1072 591 478 237 935 451 1375 643 245 107
643 263 732 287 286 77 591 49 854 -80 138 -67 244 -146 361 -268 105 -110
166 -199 229 -332 47 -98 66 -167 198 -715 32 -129 71 -285 87 -347 17 -61 44
-167 60 -235 16 -68 47 -188 69 -268 22 -80 55 -208 75 -285 64 -256 198 -752
267 -990 22 -77 53 -187 68 -245 33 -127 104 -377 170 -600 27 -91 56 -190 63
-220 8 -30 38 -134 67 -230 228 -768 270 -908 327 -1090 30 -96 83 -269 119
-385 169 -547 277 -885 535 -1675 204 -627 504 -1515 694 -2055 62 -176 132
-378 192 -555 87 -251 102 -285 137 -299 95 -37 330 -114 386 -126 36 -8 97
-24 135 -35 74 -21 372 -84 565 -119 189 -35 621 -90 824 -106 495 -39 758
-43 1146 -20 419 25 528 34 745 65 328 47 454 73 830 173 72 19 164 42 205 52
184 43 474 145 705 248 390 173 829 444 1143 706 57 47 122 101 145 119 111
88 370 338 489 471 285 320 347 396 623 766 124 166 399 599 531 835 36 63
133 250 216 416 l150 301 -16 99 c-23 145 -93 629 -101 699 -3 33 -26 186 -50
340 -24 154 -49 321 -55 370 -6 50 -35 245 -66 435 -30 190 -82 516 -115 725
-33 209 -84 520 -114 690 -30 171 -57 333 -60 360 -7 52 -46 268 -49 272 -1 2
-45 14 -97 27 -228 59 -411 167 -576 339 -159 166 -259 357 -309 589 -25 116
-25 372 -1 486 66 303 209 525 474 739 51 41 93 77 93 79 0 3 -20 95 -45 203
-24 109 -53 247 -64 307 -11 60 -42 210 -69 334 -28 124 -53 245 -57 270 -4
25 -24 117 -45 205 -21 88 -46 201 -55 250 -16 85 -43 206 -185 810 -75 316
-89 436 -72 603 15 152 51 282 112 410 66 137 125 225 222 328 107 112 216
193 352 259 165 81 301 112 581 135 66 5 208 19 315 30 384 40 691 60 1090 70
223 6 452 14 510 20 193 18 811 10 1445 -20 230 -11 548 -38 813 -70 87 -10
159 -16 161 -14 2 2 8 93 12 201 5 109 24 430 44 713 19 283 44 666 55 850 11
184 34 557 51 828 18 276 27 497 23 502 -15 13 -690 231 -1114 360 -113 34
-261 79 -330 100 -69 21 -224 66 -345 100 -121 34 -274 78 -340 97 -374 110
-1422 373 -1770 444 -55 11 -183 40 -285 64 -234 55 -461 101 -815 164 -535
95 -767 129 -1420 206 -438 51 -1306 86 -1640 65z"/>
<path d="M27426 20268 c-2 -7 -9 -65 -15 -128 -10 -100 -36 -313 -71 -570 -34
-248 -182 -930 -250 -1155 -10 -33 -35 -114 -55 -180 -77 -255 -225 -659 -304
-827 -16 -35 -53 -115 -81 -178 -60 -132 -159 -333 -169 -340 -3 -3 -28 -49
-56 -103 -27 -53 -53 -97 -56 -97 -4 0 -11 -9 -14 -21 -15 -46 -230 -380 -374
-581 -157 -217 -381 -478 -596 -693 -235 -235 -390 -369 -667 -578 -109 -82
-331 -228 -427 -280 -31 -17 -58 -33 -61 -37 -8 -11 -392 -197 -432 -210 -20
-6 -39 -18 -43 -28 -3 -9 -10 -176 -16 -372 -18 -684 -32 -909 -79 -1265 -11
-82 -27 -206 -36 -275 -21 -173 -40 -297 -75 -490 -17 -91 -37 -208 -46 -260
-8 -52 -41 -228 -73 -390 -31 -162 -62 -324 -68 -360 -12 -73 -99 -506 -137
-680 -62 -286 -89 -397 -182 -740 -107 -394 -277 -904 -415 -1245 -22 -55 -49
-127 -60 -160 -16 -51 -53 -136 -160 -375 -43 -95 -253 -519 -293 -590 -190
-340 -243 -432 -277 -480 -21 -31 -38 -59 -38 -63 0 -7 -106 -175 -149 -237
-10 -14 -25 -39 -34 -57 -9 -17 -23 -37 -30 -45 -7 -7 -37 -49 -67 -93 -72
-106 -136 -195 -158 -220 -10 -11 -43 -55 -73 -98 -30 -43 -90 -123 -134 -177
-44 -53 -111 -137 -150 -185 -38 -49 -89 -109 -113 -134 -24 -25 -47 -51 -50
-57 -4 -7 -52 -61 -107 -120 -388 -418 -727 -716 -1135 -999 -55 -38 -120 -84
-144 -102 -42 -30 -256 -161 -413 -251 -158 -92 -549 -280 -686 -331 -32 -12
-73 -29 -90 -38 -18 -9 -45 -20 -62 -24 -16 -4 -68 -22 -115 -39 -89 -33 -447
-137 -635 -184 -60 -16 -177 -46 -260 -67 -82 -22 -186 -46 -230 -54 -44 -8
-134 -26 -200 -39 -66 -14 -140 -25 -164 -26 -24 0 -98 -9 -165 -20 -388 -62
-752 -83 -1391 -77 -551 4 -661 10 -1030 59 -126 16 -273 34 -325 39 -163 15
-674 113 -915 174 -239 61 -280 72 -365 99 -47 15 -98 31 -115 36 -16 4 -84
29 -149 54 -65 25 -123 46 -127 46 -20 0 -489 228 -514 249 -11 10 -54 35 -95
56 -95 49 -340 196 -471 283 -56 37 -119 78 -139 92 -63 42 -169 119 -299 220
-68 52 -194 149 -280 215 -151 115 -192 148 -305 243 -28 23 -82 68 -119 100
-38 31 -90 77 -117 102 -27 25 -75 68 -107 97 -150 133 -239 223 -409 413
-101 113 -192 216 -204 229 -18 19 -131 167 -227 296 -13 17 -53 75 -89 130
-37 55 -71 102 -76 103 -4 2 -8 8 -8 13 0 5 -31 60 -68 121 -38 62 -88 149
-112 193 -24 44 -46 82 -49 85 -12 10 -284 567 -353 720 -31 69 -161 336 -256
525 -47 94 -88 177 -93 185 -4 8 -21 49 -39 90 -17 41 -36 84 -42 95 -60 108
-365 1013 -398 1180 -5 22 -21 87 -37 145 -96 345 -279 1164 -327 1460 -8 52
-31 183 -51 290 -20 107 -40 231 -45 275 -5 44 -20 157 -34 250 -48 317 -76
535 -85 658 -6 67 -26 280 -45 472 -20 193 -36 367 -36 387 0 20 -4 39 -9 42
-5 4 -45 -12 -88 -33 -43 -22 -105 -53 -138 -69 -34 -16 -147 -77 -252 -136
-105 -58 -195 -106 -200 -106 -5 0 -26 -12 -48 -27 -22 -15 -53 -35 -70 -43
-54 -29 -269 -153 -320 -185 -27 -18 -115 -72 -195 -120 -116 -70 -448 -287
-680 -445 -219 -148 -667 -499 -867 -679 -53 -47 -110 -98 -127 -112 l-32 -27
-103 177 c-57 97 -162 275 -233 396 -70 121 -140 240 -155 264 -16 24 -44 71
-63 106 -19 34 -59 102 -87 150 -29 48 -53 90 -53 94 0 4 -12 23 -26 42 -14
19 -46 71 -72 117 -26 46 -64 111 -84 145 -20 34 -42 73 -48 87 -6 14 -22 39
-36 57 -13 17 -28 42 -34 55 -5 13 -28 52 -49 88 -42 69 -79 132 -126 215 -15
28 -31 52 -35 55 -3 3 -27 43 -53 90 -26 47 -78 137 -116 200 -38 63 -96 162
-130 220 -114 197 -117 194 -96 -91 33 -463 103 -1058 161 -1379 19 -102 34
-196 34 -210 0 -46 111 -561 185 -860 103 -413 144 -557 284 -985 112 -343
328 -910 429 -1125 16 -36 56 -123 87 -195 51 -114 222 -475 259 -545 238
-451 281 -530 414 -760 75 -129 174 -296 221 -370 46 -74 107 -171 134 -215
27 -44 53 -82 57 -85 3 -3 28 -39 55 -80 156 -245 643 -887 806 -1065 15 -16
83 -93 150 -170 67 -77 172 -194 234 -260 125 -133 570 -575 680 -676 338
-310 635 -556 1010 -837 82 -62 166 -125 185 -141 72 -58 609 -418 790 -529
63 -39 129 -81 145 -92 17 -12 100 -61 185 -110 85 -49 169 -98 185 -108 17
-11 91 -52 165 -91 74 -40 142 -76 150 -82 22 -14 97 -52 400 -204 256 -128
374 -184 575 -272 44 -19 107 -47 140 -62 33 -15 87 -38 120 -51 33 -13 74
-29 90 -36 251 -106 973 -347 1168 -389 34 -7 139 -33 232 -58 181 -48 572
-135 720 -161 50 -8 162 -29 250 -46 88 -17 196 -35 240 -40 44 -4 186 -24
315 -44 238 -35 292 -41 685 -76 563 -50 830 -60 1590 -60 638 0 772 6 1146
50 96 12 219 25 274 30 55 6 177 23 270 39 94 16 215 37 270 46 55 9 197 37
315 62 118 25 226 47 240 50 67 12 465 111 619 154 96 27 180 49 187 49 6 0
45 11 85 24 41 13 119 38 174 54 190 59 321 101 495 162 96 33 189 65 205 69
48 14 179 63 190 71 6 4 28 13 50 20 150 47 741 292 1025 425 186 87 543 265
590 294 26 17 264 146 275 150 5 2 26 13 45 25 42 27 259 155 315 186 22 12
49 31 61 41 11 10 23 19 26 19 12 0 359 224 428 276 19 14 94 67 165 117 72
49 199 142 284 206 84 64 167 126 185 139 17 13 49 39 71 59 22 20 55 46 75
59 19 13 51 39 70 59 19 19 38 35 42 35 5 0 24 15 42 32 18 18 73 67 122 108
312 264 596 535 913 872 273 289 332 356 465 518 43 52 83 100 90 105 7 6 58
69 114 140 57 72 116 146 132 165 16 19 69 89 119 155 49 66 103 138 120 160
49 63 215 301 288 410 37 55 75 109 85 119 10 11 18 23 18 27 0 4 36 63 80
131 370 575 702 1190 960 1778 39 91 80 183 90 205 34 75 98 230 154 375 31
80 66 168 77 195 68 164 347 1008 400 1210 4 17 21 80 37 140 95 359 206 820
232 970 7 39 27 147 45 240 35 180 59 327 100 620 72 514 89 700 125 1375 12
226 12 1034 0 1260 -37 684 -50 838 -111 1285 -16 121 -34 258 -40 305 -11
100 -50 336 -84 505 -12 66 -26 143 -29 170 -8 66 -107 514 -162 735 -24 96
-51 204 -59 240 -9 36 -35 130 -57 210 -23 80 -53 190 -68 245 -40 144 -163
525 -205 629 -19 49 -35 93 -35 98 0 13 -62 171 -73 186 -5 6 -14 12 -19 12
-5 0 -10 -6 -12 -12z"/>
<path d="M23027 17473 c-4 -3 -7 -26 -7 -49 0 -59 -35 -296 -71 -484 -17 -85
-35 -184 -41 -220 -27 -157 -150 -598 -214 -767 -13 -34 -24 -66 -24 -71 0
-11 -120 -310 -157 -392 -268 -589 -587 -1084 -994 -1539 -189 -211 -408 -414
-573 -531 -35 -25 -47 -50 -23 -50 6 0 50 9 97 19 47 11 112 22 145 26 33 4
132 24 220 46 88 21 205 47 260 58 55 11 114 25 130 30 17 5 57 17 90 26 263
74 614 199 885 314 148 64 622 302 651 327 8 8 18 14 22 14 21 0 387 238 582
379 298 215 593 482 923 834 74 78 282 331 340 411 136 189 272 391 272 402 0
3 10 20 23 37 56 78 301 546 322 616 4 13 34 86 66 164 65 154 65 162 0 172
-20 4 -115 21 -211 40 -255 49 -493 82 -940 130 -219 24 -319 30 -905 55 -252
11 -858 13 -868 3z"/>
</g>
</svg>
